<?xml version="1.0" standalone="no"?>
<!DOCTYPE svg PUBLIC "-//W3C//DTD SVG 20010904//EN"
 "http://www.w3.org/TR/2001/REC-SVG-20010904/DTD/svg10.dtd">
<svg version="1.0" xmlns="http://www.w3.org/2000/svg"
 width="512.000000pt" height="512.000000pt" viewBox="0 0 512.000000 512.000000"
 preserveAspectRatio="xMidYMid meet">
<metadata>
Created by potrace 1.11, written by Peter Selinger 2001-2013
</metadata>
<g transform="translate(0.000000,512.000000) scale(0.100000,-0.100000)"
fill="#000000" stroke="none">
<path d="M361 5104 c-169 -45 -301 -180 -346 -351 -23 -87 -23 -4299 0 -4386
45 -173 178 -307 350 -352 52 -13 309 -15 2195 -15 2330 0 2184 -4 2302 56 71
36 159 123 197 193 65 123 61 -41 61 2311 0 1886 -2 2143 -15 2195 -45 172
-179 305 -352 350 -85 22 -4309 21 -4392 -1z m2039 -1561 l0 -378 378 378 377
377 383 0 382 0 0 -382 0 -383 -377 -377 -378 -378 378 0 377 0 0 -383 0 -382
-380 -380 -380 -380 0 383 0 382 -377 0 -378 0 -382 -382 -383 -383 0 383 0
382 -382 0 -383 0 383 383 382 382 0 378 0 377 -382 0 -383 0 380 380 380 380
382 0 383 0 0 -377z"/>
<path d="M2025 2780 l-380 -380 378 0 377 0 0 -377 0 -378 380 380 380 380 0
377 0 378 -378 0 -377 0 -380 -380z"/>
</g>
</svg>
