<svg width="129" height="24" viewBox="0 0 129 24" fill="none" xmlns="http://www.w3.org/2000/svg">
<path fill-rule="evenodd" clip-rule="evenodd" d="M122.398 13.1896V4.16776H120.188V18.4H122.398V13.7811H122.436L126.211 18.4H129L124.637 13.4243L128.649 8.78666H126.003L122.436 13.1896H122.398ZM33.3531 4.93757L36.929 13.9031L36.9821 14.0385C37.2241 14.6592 37.3834 15.1273 37.4602 15.4428H37.5076L37.557 15.294C37.7684 14.6614 37.9416 14.1852 38.0767 13.8656L41.719 4.93757H44.7827V18.4H42.5442V9.68791L42.545 9.52043C42.5513 8.83916 42.5953 8.0219 42.677 7.06865H42.639L42.6072 7.20148C42.481 7.72098 42.3683 8.09917 42.2691 8.33604L38.2095 18.4H36.6539L32.5848 8.41114L32.5584 8.34054C32.4525 8.04723 32.3411 7.62327 32.2244 7.06865H32.1864L32.1938 7.15195C32.2395 7.69569 32.2623 8.54727 32.2623 9.70669V18.4H30.1756V4.93757H33.3531ZM54.0953 9.82873C53.3681 8.98381 52.3405 8.56135 51.0126 8.56135C49.6847 8.56135 48.5734 9.03232 47.6786 9.97425C46.7838 10.9162 46.3365 12.1351 46.3365 13.6309C46.3365 15.2143 46.7427 16.4426 47.5553 17.3157C48.3679 18.1888 49.4887 18.6253 50.9178 18.6253C52.3089 18.6253 53.4397 18.3734 54.3102 17.8694L54.4273 17.7992V16.0436C53.561 16.657 52.6093 16.9636 51.5722 16.9636C50.649 16.9636 49.9234 16.7227 49.3954 16.2408C48.8952 15.7842 48.6206 15.1451 48.5715 14.3234L48.5655 14.1848H55.1861V13.3492C55.1861 11.8472 54.8225 10.6737 54.0953 9.82873ZM77.9424 8.56135C79.46 8.56135 80.6425 9.00259 81.4898 9.88506C82.3372 10.7675 82.7608 11.9911 82.7608 13.5558C82.7608 15.0892 82.304 16.3174 81.3902 17.2406C80.4765 18.1637 79.2482 18.6253 77.7053 18.6253C76.2066 18.6253 75.0099 18.1762 74.1151 17.2781C73.2204 16.38 72.773 15.1893 72.773 13.706C72.773 12.0912 73.2394 10.8301 74.1721 9.92261C75.1048 9.0151 76.3615 8.56135 77.9424 8.56135ZM103.578 8.56135C106.032 8.56135 107.259 9.75676 107.259 12.1476V18.4H105.124V16.8979H105.086L105.018 17.0112C104.35 18.0873 103.39 18.6253 102.137 18.6253C101.182 18.6253 100.434 18.3687 99.8934 17.8555C99.3527 17.3423 99.0824 16.6632 99.0824 15.8183C99.0824 14.0033 100.138 12.9456 102.25 12.6451L105.134 12.2415L105.133 12.1347C105.099 10.8352 104.442 10.1855 103.161 10.1855C102.004 10.1855 100.96 10.5798 100.031 11.3684V9.4626L100.186 9.37473C101.174 8.83248 102.305 8.56135 103.578 8.56135ZM92.97 4.93919L92.8 4.93757H88.4842V18.4H92.8474C94.2449 18.4 95.4021 18.0433 96.3189 17.3298C97.2358 16.6163 97.6943 15.6837 97.6943 14.5321C97.6943 13.6058 97.4145 12.8532 96.8549 12.2743C96.3263 11.7275 95.63 11.3915 94.7659 11.2662L94.6116 11.2463V11.2088C95.3831 10.9709 95.987 10.5704 96.4233 10.0071C96.8596 9.44382 97.0778 8.7804 97.0778 8.01684C97.0778 7.10308 96.6936 6.36142 95.9253 5.79188C95.1904 5.24711 94.2053 4.96287 92.97 4.93919ZM114.795 8.56135C115.851 8.56135 116.658 8.90088 117.214 9.57995C117.77 10.259 118.049 11.2401 118.049 12.5231V18.4H115.848V12.9831L115.847 12.862C115.819 11.1465 115.177 10.2887 113.923 10.2887C113.252 10.2887 112.699 10.5375 112.263 11.0351C111.826 11.5327 111.608 12.1601 111.608 12.9174V18.4H109.398V8.78666H111.608V10.3826H111.646L111.718 10.267C112.441 9.12991 113.467 8.56135 114.795 8.56135ZM68.0534 8.56135C70.1907 8.56135 71.2594 9.86628 71.2594 12.4762V18.4H69.0588V13.1615L69.0576 13.0047C69.0433 12.0779 68.8998 11.401 68.6272 10.9741C68.3395 10.5234 67.8542 10.2981 67.1713 10.2981C66.5958 10.2981 66.1074 10.5829 65.7058 11.1524C65.3043 11.722 65.1035 12.4042 65.1035 13.199V18.4H62.8935V12.9831L62.8925 12.8597C62.8634 11.152 62.2251 10.2981 60.9775 10.2981C60.3831 10.2981 59.8946 10.5673 59.512 11.1055C59.1295 11.6437 58.9382 12.3416 58.9382 13.199V18.4H56.7376V8.78666H58.9382V10.3075H58.9761L59.0474 10.1931C59.7465 9.10525 60.744 8.56135 62.0398 8.56135C62.7101 8.56135 63.2966 8.74442 63.7993 9.11055C64.302 9.47668 64.6451 9.95704 64.8285 10.5516C65.5493 9.22477 66.6243 8.56135 68.0534 8.56135ZM92.3731 6.73069H90.7322V10.561H92.1929C92.977 10.561 93.592 10.3779 94.0378 10.0118C94.4836 9.64567 94.7065 9.12776 94.7065 8.45808C94.7065 7.30648 93.9287 6.73069 92.3731 6.73069ZM49.3764 10.852C49.8159 10.3951 50.3518 10.1667 50.9842 10.1667C51.6292 10.1667 52.135 10.3842 52.5018 10.8192C52.8685 11.2541 53.0551 11.8628 53.0614 12.6451H48.5655C48.6666 11.9066 48.937 11.3089 49.3764 10.852ZM75.7703 11.19C76.2698 10.5954 76.9496 10.2981 77.8096 10.2981C78.6759 10.2981 79.3414 10.586 79.8062 11.1618C80.271 11.7376 80.5034 12.5544 80.5034 13.6121C80.5034 14.6636 80.271 15.4741 79.8062 16.0436C79.3414 16.6131 78.6759 16.8979 77.8096 16.8979C76.9623 16.8979 76.2857 16.6084 75.7798 16.0295C75.2739 15.4506 75.021 14.6573 75.021 13.6497C75.021 12.6045 75.2707 11.7846 75.7703 11.19ZM103.095 13.9595L105.134 13.6778V14.5134C105.134 15.2206 104.914 15.8073 104.475 16.2736C104.035 16.7399 103.48 16.973 102.81 16.973C102.317 16.973 101.923 16.8431 101.629 16.5834C101.335 16.3237 101.188 15.9904 101.188 15.5836C101.188 15.0266 101.348 14.637 101.667 14.4148C101.962 14.2097 102.39 14.0646 102.951 13.9795L103.095 13.9595ZM92.3637 12.3541H90.7322V16.6163H92.6577C93.4987 16.6163 94.1484 16.4238 94.6069 16.0389C95.0653 15.654 95.2946 15.1236 95.2946 14.4476C95.2946 13.052 94.3176 12.3541 92.3637 12.3541Z" fill="white"/>
<path fill-rule="evenodd" clip-rule="evenodd" d="M5.64375 1.60001L0 7.20001H5.64375V12.8L0 18.4H5.64375V24L11.2875 18.4H16.9313V24L22.575 18.4V12.8L16.9313 12.8L22.575 7.20001V1.60001H16.9313L11.2875 7.20001V1.60001H5.64375ZM11.2875 7.20001H16.9313V12.8L11.2875 18.4V12.8L5.64375 12.8L11.2875 7.20001Z" fill="white"/>
</svg>
